<svg width="45" height="24" viewBox="0 0 45 24" fill="none" xmlns="http://www.w3.org/2000/svg">
<path d="M11.125 6.60938C8.125 6.60938 5.73438 9.04688 5.73438 12C5.73438 15 8.125 17.3906 11.125 17.3906C14.0781 17.3906 16.5156 15 16.5156 12C16.5156 9.04688 14.0781 6.60938 11.125 6.60938ZM11.125 15.5156C9.20312 15.5156 7.60938 13.9688 7.60938 12C7.60938 10.0781 9.15625 8.53125 11.125 8.53125C13.0469 8.53125 14.5938 10.0781 14.5938 12C14.5938 13.9688 13.0469 15.5156 11.125 15.5156ZM17.9688 6.42188C17.9688 5.71875 17.4062 5.15625 16.7031 5.15625C16 5.15625 15.4375 5.71875 15.4375 6.42188C15.4375 7.125 16 7.6875 16.7031 7.6875C17.4062 7.6875 17.9688 7.125 17.9688 6.42188ZM21.5312 7.6875C21.4375 6 21.0625 4.5 19.8438 3.28125C18.625 2.0625 17.125 1.6875 15.4375 1.59375C13.7031 1.5 8.5 1.5 6.76562 1.59375C5.07812 1.6875 3.625 2.0625 2.35938 3.28125C1.14062 4.5 0.765625 6 0.671875 7.6875C0.578125 9.42188 0.578125 14.625 0.671875 16.3594C0.765625 18.0469 1.14062 19.5 2.35938 20.7656C3.625 21.9844 5.07812 22.3594 6.76562 22.4531C8.5 22.5469 13.7031 22.5469 15.4375 22.4531C17.125 22.3594 18.625 21.9844 19.8438 20.7656C21.0625 19.5 21.4375 18.0469 21.5312 16.3594C21.625 14.625 21.625 9.42188 21.5312 7.6875ZM19.2812 18.1875C18.9531 19.125 18.2031 19.8281 17.3125 20.2031C15.9062 20.7656 12.625 20.625 11.125 20.625C9.57812 20.625 6.29688 20.7656 4.9375 20.2031C4 19.8281 3.29688 19.125 2.92188 18.1875C2.35938 16.8281 2.5 13.5469 2.5 12C2.5 10.5 2.35938 7.21875 2.92188 5.8125C3.29688 4.92188 4 4.21875 4.9375 3.84375C6.29688 3.28125 9.57812 3.42188 11.125 3.42188C12.625 3.42188 15.9062 3.28125 17.3125 3.84375C18.2031 4.17188 18.9062 4.92188 19.2812 5.8125C19.8438 7.21875 19.7031 10.5 19.7031 12C19.7031 13.5469 19.8438 16.8281 19.2812 18.1875ZM44.0781 13.5L44.7344 9.1875H40.5625V6.375C40.5625 5.15625 41.125 4.03125 43 4.03125H44.9219V0.328125C44.9219 0.328125 43.1875 0 41.5469 0C38.125 0 35.875 2.10938 35.875 5.85938V9.1875H32.0312V13.5H35.875V24H40.5625V13.5H44.0781Z" fill="white"/>
</svg>
